<?xml version="1.0" standalone="no"?>
<!DOCTYPE svg PUBLIC "-//W3C//DTD SVG 20010904//EN"
 "http://www.w3.org/TR/2001/REC-SVG-20010904/DTD/svg10.dtd">
<svg version="1.0" xmlns="http://www.w3.org/2000/svg"
 width="361.000000pt" height="263.000000pt" viewBox="0 0 361.000000 263.000000"
 preserveAspectRatio="xMidYMid meet">

<g transform="translate(0.000000,263.000000) scale(0.100000,-0.100000)"
fill="#000000" stroke="none">
<path d="M1771 2399 c-157 -19 -323 -80 -446 -162 -109 -73 -107 -71 -110
-125 -1 -26 -5 -62 -9 -78 -3 -16 -8 -58 -11 -93 -3 -36 -8 -67 -10 -71 -2 -4
-6 -33 -10 -66 -3 -33 -7 -71 -10 -84 -3 -13 -7 -51 -10 -84 -4 -33 -8 -62
-10 -66 -2 -4 -7 -35 -10 -71 -3 -35 -8 -75 -10 -89 -3 -14 -7 -45 -10 -70 -3
-25 -7 -56 -10 -70 -2 -14 -7 -52 -10 -85 -3 -33 -7 -67 -10 -75 -2 -8 -7 -35
-9 -60 -3 -25 -8 -67 -12 -95 -4 -27 -8 -59 -9 -70 -1 -11 -5 -47 -10 -79 -15
-115 -16 -111 40 -179 192 -233 507 -377 825 -377 76 0 225 21 269 37 22 9 21
10 -18 21 -264 80 -536 335 -647 607 -64 155 -78 231 -78 415 -1 142 2 177 23
254 81 309 278 559 554 702 49 25 111 54 139 63 l51 17 -77 17 c-97 21 -257
29 -355 16z"/>
<path d="M2113 2060 c-22 -5 -65 -19 -95 -31 -228 -97 -369 -318 -355 -560 2
-48 7 -92 11 -98 4 -6 23 20 43 61 26 52 59 95 112 149 85 85 160 127 279 157
40 10 70 21 67 24 -3 3 1 17 8 31 8 15 17 24 21 20 4 -4 4 1 0 10 -4 12 0 23
12 33 11 9 12 12 4 8 -10 -5 -8 1 5 16 13 15 15 21 5 16 -13 -7 -13 -6 0 6 8
7 15 19 16 26 2 29 5 33 16 26 7 -4 8 -3 4 5 -4 6 -2 19 6 28 11 14 11 16 -2
8 -8 -4 -4 4 10 20 14 16 18 24 10 20 -13 -7 -13 -6 -2 7 10 13 10 17 -4 22
-21 8 -119 6 -171 -4z"/>
<path d="M2172 1563 c-20 -4 -13 -10 38 -34 64 -30 68 -30 108 5 21 19 22 21
5 28 -20 7 -114 8 -151 1z"/>
</g>
</svg>
